# AST/ASF file generated using VICON BodyLanguage
# -----------------------------------------------
:version 1.10
:name VICON
:units
  mass 1.0
  length 0.45
  angle deg
:documentation
   .ast/.asf automatically generated from VICON data using
   VICON BodyBuilder and BodyLanguage model FoxedUp or BRILLIANT.MOD
:root
   order TX TY TZ RX RY RZ
   axis XYZ
   position 0 0 0  
   orientation 0 0 0 
:bonedata
  begin
     id 1 
     name lhipjoint
     direction 0.610259 -0.730986 0.305356 
     length 2.50941 
     axis 0 0 0  XYZ
  end
  begin
     id 2 
     name lfemur
     direction 0.34202 -0.939693 0  
     length 7.48822  
     axis 0 0 20  XYZ
    dof rx ry rz
    limits (-160.0 20.0)
           (-70.0 70.0)
           (-60.0 70.0)
  end
  begin
     id 3 
     name ltibia
     direction 0.34202 -0.939693 0   
     length 7.60141   
     axis 0 0 20   XYZ
    dof rx
    limits (-10.0 170.0)
  end
  begin
     id 4 
     name lfoot
     direction 0.0673488 -0.185039 0.980421   
     length 2.04049   
     axis -90 7.62852e-016 20   XYZ
    dof rx rz
    limits (-45.0 90.0)
           (-70.0 20.0)
  end
  begin
     id 5 
     name ltoes
     direction 1.5356e-011 -4.21729e-011 1   
     length 1.02897   
     axis -90 7.62852e-016 20   XYZ
    dof rx
    limits (-90.0 20.0)
  end
  begin
     id 6 
     name rhipjoint
     direction -0.57612 -0.754205 0.315056   
     length 2.43216  
     axis 0 0 0  XYZ 
  end
  begin
     id 7 
     name rfemur
     direction -0.34202 -0.939693 0   
     length 7.42799   
     axis 0 0 -20   XYZ
    dof rx ry rz
    limits (-160.0 20.0)
           (-70.0 70.0)
           (-70.0 60.0)
  end
  begin
     id 8 
     name rtibia
     direction -0.34202 -0.939693 0   
     length 7.69484   
     axis 0 0 -20   XYZ
    dof rx
    limits (-10.0 170.0)
 end
 begin
     id 9 
     name rfoot
     direction -0.111837 -0.30727 0.945028   
     length 2.15769  
     axis -90 -7.62852e-016 -20   XYZ
    dof rx rz
    limits (-45.0 90.0)
           (-20.0 70.0)
  end
  begin
     id 10 
     name rtoes
     direction -1.53539e-011 -4.21878e-011 1   
     length 1.07391   
     axis -90 -7.62852e-016 -20   XYZ
    dof rx
    limits (-90.0 20.0)
  end
  begin
     id 11 
     name lowerback
     direction 0.00552624 0.990109 -0.140195   
     length 2.12403   
     axis 0 0 0   XYZ
    dof rx ry rz
    limits (-20.0 45.0)
           (-30.0 30.0)
           (-30.0 30.0)
  end
  begin
     id 12 
     name upperback
     direction 0.00361898 0.999976 -0.00584723   
     length 2.13232   
     axis 0 0 0   XYZ
    dof rx ry rz
    limits (-20.0 45.0)
           (-30.0 30.0)
           (-30.0 30.0)
  end
  begin
     id 13 
     name thorax
     direction -0.000331275 0.998253 0.0590847   
     length 2.17688   
     axis 0 0 0   XYZ
    dof rx ry rz
    limits (-20.0 45.0)
           (-30.0 30.0)
           (-30.0 30.0)
  end
  begin
     id 14 
     name lowerneck
     direction -0.0561561 0.979832 0.19177   
     length 1.64159   
     axis 0 0 0   XYZ
    dof rx ry rz
    limits (-20.0 45.0)
           (-30.0 30.0)
           (-30.0 30.0)
  end
  begin
     id 15 
     name upperneck
     direction 0.0827153 0.979385 -0.184293   
     length 1.68939   
     axis 0 0 0   XYZ
    dof rx ry rz
    limits (-20.0 45.0)
           (-30.0 30.0)
           (-30.0 30.0)
  end
  begin
     id 16
     name head
     direction 0.0278583 0.995936 -0.0856488  
     length 1.70207  
     axis 0 0 0   XYZ
    dof rx ry rz
    limits (-20.0 45.0)
           (-30.0 30.0)
           (-30.0 30.0)
  end
  begin
     id 17 
     name lclavicle
     direction 0.950993 0.301131 -0.0702275  
     length 3.41652  
     axis 0 0 0   XYZ
    dof ry rz
    limits (-20.0 10.0)
           (0.0 20.0)
  end
  begin
     id 18 
     name lhumerus
     direction 1 -4.48981e-011 -3.9662e-029   
     length 5.32955   
     axis 180 -30 -90   XYZ
    dof rx ry rz
    limits (-60.0 90.0)
           (-90.0 90.0)
           (-90.0 90.0)
  end
  begin
     id 19
     name lradius
     direction 1 -4.48925e-011 -9.0549e-027   
     length 3.69232   
     axis 180 -30 -90   XYZ
    dof rx
    limits (-10.0 170.0)
  end
  begin
     id 20
     name lwrist
     direction 1 -4.49007e-011 -1.49005e-026   
     length 1.84616   
     axis 9.0955e-015 90 90   XYZ
    dof ry
    limits (-180.0 0.0)
 end
  begin
     id 21 
     name lhand
     direction 1 -4.49016e-011 -2.98023e-026   
     length 0.536598   
     axis 1.90115e-014 90 90   XYZ
    dof rx rz
    limits (-90.0 90.0)
           (-45.0 45.0)
  end
  begin
     id 22 
     name lfingers
     direction 1 -4.48924e-011 -5.9578e-026   
     length 0.432619   
     axis 3.80223e-014 90 90   XYZ
    dof rx
    limits (0.0 90.0)
  end
  begin
     id 23
     name lthumb
     direction 0.707107 -6.34947e-011 0.707107   
     length 0.621157   
     axis -90 45 -3.84942e-014   XYZ
    dof rx rz
    limits (-45.0 45.0)
           (-45.0 45.0)
  end
  begin
     id 24 
     name rclavicle
     direction -0.955495 0.276497 -0.102848   
     length 3.36357  
     axis 0 0 0   XYZ 
    dof ry rz
    limits (-10.0 20.0)
           (-20.0 0.0)
  end
  begin
     id 25 
     name rhumerus
     direction -1 -4.48961e-011 3.30983e-027  
     length 5.23431   
     axis 180 30 90   XYZ
    dof rx ry rz
    limits (-90.0 60.0)
           (-90.0 90.0)
           (-90.0 90.0)
  end
  begin
     id 26 
     name rradius
     direction -1 -4.48965e-011 -6.63263e-027   
     length 3.55301   
     axis 180 30 90   XYZ
    dof rx
    limits (-10.0 170.0)
  end
  begin
     id 27 
     name rwrist
     direction -1 -4.48942e-011 -1.48958e-026   
     length 1.77651   
     axis 9.0955e-015 -90 -90   XYZ
    dof ry
    limits (-180.0 0.0)
  end
  begin
     id 28
     name rhand
     direction -1 -4.48977e-011 -2.97966e-026   
     length 0.772522   
     axis 1.90115e-014 -90 -90   XYZ
    dof rx rz
    limits (-90.0 90.0)
           (-45.0 45.0)
  end
  begin
     id 29
     name rfingers
     direction -1 -4.49135e-011 -5.96389e-026   
     length 0.622827   
     axis 3.80223e-014 -90 -90   XYZ
    dof rx
    limits (0.0 90.0)
  end
  begin
     id 30
     name rthumb
     direction -0.707107 -6.34969e-011 0.707107   
     length 0.894259   
     axis -90 -45 3.84942e-014   XYZ
    dof rx rz
    limits (-45.0 45.0)
           (-45.0 45.0)
  end
:hierarchy
  begin
    root lhipjoint rhipjoint lowerback
    lhipjoint lfemur
    lfemur ltibia
    ltibia lfoot
    lfoot ltoes
    rhipjoint rfemur
    rfemur rtibia
    rtibia rfoot
    rfoot rtoes
    lowerback upperback
    upperback thorax
    thorax lowerneck lclavicle rclavicle
    lowerneck upperneck
    upperneck head
    lclavicle lhumerus
    lhumerus lradius
    lradius lwrist
    lwrist lhand lthumb
    lhand lfingers
    rclavicle rhumerus
    rhumerus rradius
    rradius rwrist
    rwrist rhand rthumb
    rhand rfingers
  end

#!OML:ASF F:\VICON\USERDATA\INSTALL\rory3\rory3.ASF
:FULLY-SPECIFIED
:DEGREES
1
root -8.75499 17.6704 -12.2308 -84.0586 -83.3121 81.9184
lowerback 10.603 2.30309 -2.04315
upperback 2.12845 2.76451 0.0380325
thorax -3.81844 1.36286 0.809886
lowerneck -15.3953 4.70382 -9.22409
upperneck 42.9622 6.88155 4.64151
head 18.1003 1.31049 4.94907
rclavicle -1.88845e-015 -1.66979e-014
rhumerus -31.8383 -16.5638 -74.824
rradius 33.4874
rwrist 8.16944
rhand -15.7397 10.8041
rfingers 7.12502
rthumb 10.4512 -18.9161
lclavicle -1.88845e-015 -1.66979e-014
lhumerus -27.2586 6.21489 83.3662
lradius 30.8821
lwrist -4.26491
lhand -20.644 26.8401
lfingers 7.12502
lthumb 5.71805 56.743
rfemur -12.3557 6.16855 3.83154
rtibia 44.8679
rfoot -18.7195 -3.44518
rtoes -1.45654
lfemur -0.66261 -5.10487 -23.4756
ltibia 16.1732
lfoot -9.54699 -0.946638
ltoes -16.4508
2
root -8.74786 17.6661 -12.1801 -83.3521 -83.4692 81.1781
lowerback 10.5137 2.31678 -2.04566
upperback 2.16109 2.78396 0.0250395
thorax -3.73515 1.37164 0.799364
lowerneck -15.4482 4.73462 -9.07697
upperneck 42.92 6.89715 4.63311
head 18.0942 1.34451 4.92296
rclavicle 1.38155e-014 -1.43125e-014
rhumerus -31.9234 -16.7004 -75.091
rradius 33.4841
rwrist 8.69724
rhand -15.1066 10.8947
rfingers 7.12502
rthumb 11.0619 -18.7938
lclavicle 1.38155e-014 -1.43125e-014
lhumerus -27.1571 6.54246 82.981
lradius 30.8762
lwrist -4.01859
lhand -21.1422 26.9797
lfingers 7.12502
lthumb 5.23706 56.895
rfemur -12.5886 5.41573 4.89035
rtibia 45.7093
rfoot -19.4346 -2.53973
rtoes -2.48915
lfemur -0.875451 -5.53755 -23.5126
ltibia 16.686
lfoot -9.66544 -0.595661
ltoes -15.3173
3
root -8.74091 17.6668 -12.131 -83.5097 -83.4721 81.3394
lowerback 10.4334 2.38533 -2.23989
upperback 2.14957 2.85389 -0.0304314
thorax -3.71156 1.40824 0.84377
lowerneck -15.4424 4.76698 -8.93672
upperneck 42.9355 6.86451 4.7134
head 18.1042 1.36529 4.93194
rclavicle -2.46493e-014 -1.03368e-014
rhumerus -32.0963 -16.9295 -75.3031
rradius 33.4878
rwrist 9.14679
rhand -14.8414 10.9793
rfingers 7.12502
rthumb 11.3177 -18.6954
lclavicle -2.46493e-014 -1.03368e-014
lhumerus -27.0647 6.83348 82.5859
lradius 30.8074
lwrist -3.95691
lhand -21.0551 27.1368
lfingers 7.12502
lthumb 5.32114 57.05
rfemur -12.852 4.94774 5.80356
rtibia 46.497
rfoot -20.0925 -1.55018
rtoes -1.63393
lfemur -1.16929 -5.6961 -23.6847
ltibia 17.2758
lfoot -9.86952 -0.480366
ltoes -13.8898
4
root -8.73573 17.6612 -12.082 -83.2524 -83.3927 81.0805
lowerback 10.3467 2.43686 -2.60146
upperback 2.12255 2.88783 -3.1277e-005
thorax -3.71222 1.42967 1.07577
lowerneck -15.4332 4.75163 -9.01304
upperneck 42.9837 6.84664 4.75724
head 18.1259 1.34713 4.96534
rclavicle -9.54166e-015 3.18055e-015
rhumerus -32.2947 -16.8335 -75.4334
rradius 33.5729
rwrist 9.19468
rhand -14.9208 10.6844
rfingers 7.12502
rthumb 11.2412 -18.9945
lclavicle -9.54166e-015 3.18055e-015
lhumerus -27.122 7.08386 82.3706
lradius 30.8299
lwrist -3.66003
lhand -20.9668 27.1053
lfingers 7.12502
lthumb 5.40638 57.0163
rfemur -13.1085 4.18294 6.68481
rtibia 47.2642
rfoot -20.5048 -0.809745
rtoes -3.63816
lfemur -1.47068 -5.59037 -23.9158
ltibia 17.8224
lfoot -10.1529 -0.686978
ltoes -13.1022
5
root -8.73107 17.6523 -12.0362 -82.6552 -83.4061 80.4898
lowerback 10.2609 2.46979 -2.85954
upperback 2.0855 2.90775 0.00436015
thorax -3.71707 1.44328 1.22451
lowerneck -15.5201 4.72761 -8.97594
upperneck 42.9981 6.81864 4.74631
head 18.1644 1.33805 4.95534
rclavicle 6.95746e-015 2.38542e-015
rhumerus -32.5093 -16.9446 -75.5915
rradius 33.6429
rwrist 9.20357
rhand -14.9495 10.5199
rfingers 7.12502
rthumb 11.2134 -19.1605
lclavicle 6.95746e-015 2.38542e-015
lhumerus -27.233 7.3717 82.0818
lradius 30.9032
lwrist -3.30611
lhand -21.3256 27.1902
lfingers 7.12502
lthumb 5.05993 57.1098
rfemur -13.373 3.10987 7.71856
rtibia 47.9818
rfoot -21.0578 -0.100181
rtoes -8.65114
lfemur -1.77155 -5.21401 -24.004
ltibia 18.3101
lfoot -10.5272 -1.08842
ltoes -13.1435
6
root -8.72923 17.6472 -11.9935 -82.0497 -83.336 79.8697
lowerback 10.1883 2.45521 -3.16748
upperback 2.04987 2.85553 -0.062867
thorax -3.72314 1.42115 1.33631
lowerneck -15.4026 4.83421 -8.77837
upperneck 42.8636 6.91876 4.71259
head 18.0502 1.42035 4.90593
rclavicle -3.1408e-014 1.03368e-014
rhumerus -32.6921 -17.1028 -75.8749
rradius 33.6505
rwrist 9.23848
rhand -15.078 10.7543
rfingers 7.12502
rthumb 11.0895 -18.9327
lclavicle -3.1408e-014 1.03368e-014
lhumerus -27.3447 7.8117 81.6155
lradius 30.9592
lwrist -3.20058
lhand -21.6184 27.4466
lfingers 7.12502
lthumb 4.77725 57.3727
rfemur -13.5612 2.11395 8.61018
rtibia 48.667
rfoot -21.7978 1.34524
rtoes -10.8568
lfemur -2.03169 -5.03078 -24.1941
ltibia 18.8128
lfoot -10.8748 -1.30717
ltoes -12.8765
7
root -8.72618 17.6459 -11.9504 -81.0405 -83.3064 78.8968
lowerback 10.0523 2.42901 -3.40026
upperback 2.02109 2.80173 -0.0787487
thorax -3.68542 1.39742 1.46211
lowerneck -14.921 5.02561 -8.55949
upperneck 42.4757 7.16022 4.52931
head 17.6879 1.56963 4.76916
rclavicle -1.66979e-014 6.36111e-015
rhumerus -32.8266 -17.2471 -76.0543
rradius 33.63
rwrist 9.29664
rhand -14.9503 11.027
rfingers 7.12502
rthumb 11.2127 -18.6534
lclavicle -1.66979e-014 6.36111e-015
lhumerus -27.3512 8.20055 81.2439
lradius 30.8821
lwrist -2.99268
lhand -21.7742 27.2144
lfingers 7.12502
lthumb 4.6268 57.1439
rfemur -13.7527 1.27311 9.50891
rtibia 49.2848
rfoot -22.2986 3.36116
rtoes -10.2036
lfemur -2.34825 -4.98406 -24.3578
ltibia 19.323
lfoot -11.1419 -1.3491
ltoes -13.2808
8
root -8.72143 17.642 -11.9062 -79.4614 -83.4196 77.4036
lowerback 9.90584 2.37732 -3.36068
upperback 1.97342 2.74382 -0.100454
thorax -3.64804 1.3694 1.42972
lowerneck -14.6826 5.30986 -8.22539
upperneck 42.4744 7.54802 4.30425
head 17.6174 1.75119 4.65677
rclavicle -1.2424e-014 -4.77083e-015
rhumerus -32.9467 -17.1133 -76.3194
rradius 33.5985
rwrist 9.02716
rhand -15.1012 10.9786
rfingers 7.12502
rthumb 11.0671 -18.7096
lclavicle -1.2424e-014 -4.77083e-015
lhumerus -27.361 8.11701 80.9424
lradius 30.8645
lwrist -2.40518
lhand -21.7495 27.2971
lfingers 7.12502
lthumb 4.65065 57.226
rfemur -13.9852 0.248141 10.6349
rtibia 49.8265
rfoot -22.813 4.99276
rtoes -11.7036
lfemur -2.72297 -5.12314 -24.3653
ltibia 19.8183
lfoot -11.3179 -1.30802
ltoes -13.1328
9
root -8.71443 17.6296 -11.859 -77.7192 -83.619 75.6525
lowerback 9.86312 2.32698 -3.15761
upperback 1.95651 2.70099 -0.0908942
thorax -3.63093 1.34661 1.3329
lowerneck -14.5535 5.45894 -8.3745
upperneck 42.4365 7.73831 4.49141
head 17.5153 1.83968 4.78732
rclavicle -6.16232e-015 3.18055e-015
rhumerus -33.0441 -16.9813 -76.5478
rradius 33.5725
rwrist 8.61744
rhand -15.3274 10.7925
rfingers 7.12502
rthumb 10.8489 -18.9073
lclavicle -6.16232e-015 3.18055e-015
lhumerus -27.3709 8.16397 80.6563
lradius 30.8086
lwrist -2.06156
lhand -21.7832 27.4341
lfingers 7.12502
lthumb 4.61808 57.3638
rfemur -14.0951 -1.05833 11.8583
rtibia 50.2684
rfoot -23.3237 6.65797
rtoes -13.4146
lfemur -2.80251 -8.6353 -24.737
ltibia 20.3754
lfoot -10.7759 2.26401
ltoes -14.1333
10
root -8.70935 17.6137 -11.8128 -76.3461 -83.6947 74.2365
lowerback 9.87787 2.33588 -3.14464
upperback 1.91739 2.71382 -0.0946939
thorax -3.67967 1.35424 1.31846
lowerneck -14.5781 5.36016 -8.55523
upperneck 42.357 7.57608 4.68667
head 17.4662 1.78138 4.87797
rclavicle 2.34069e-014 -2.70347e-014
rhumerus -33.2616 -17.2527 -76.5834
rradius 33.5476
rwrist 8.66132
rhand -15.264 10.8012
rfingers 7.12502
rthumb 10.9101 -18.8953
lclavicle 2.34069e-014 -2.70347e-014
lhumerus -27.4192 8.46547 80.3377
lradius 30.6825
lwrist -2.06567
lhand -21.6698 27.686
lfingers 7.12502
lthumb 4.72763 57.6132
rfemur -14.1014 -2.35412 12.8996
rtibia 50.6209
rfoot -23.7395 8.33501
rtoes -15.0474
lfemur -3.06463 -9.16459 -24.8582
ltibia 21.018
lfoot -10.9003 2.83824
ltoes -15.0556
11
root -8.70718 17.5971 -11.7702 -75.2175 -83.6841 73.1037
lowerback 9.84256 2.33933 -3.25116
upperback 1.85089 2.70769 -0.133634
thorax -3.73206 1.35428 1.33822
lowerneck -14.8264 5.05733 -8.61883
upperneck 42.2496 7.12701 4.79865
head 17.5071 1.61067 4.87734
rclavicle 3.926e-015 3.97569e-015
rhumerus -33.5298 -17.3817 -76.6941
rradius 33.5408
rwrist 8.53644
rhand -15.3448 10.8269
rfingers 7.12502
rthumb 10.8322 -18.8738
lclavicle 3.926e-015 3.97569e-015
lhumerus -27.4692 8.86712 79.9437
lradius 30.5244
lwrist -2.22812
lhand -21.2916 27.8746
lfingers 7.12502
lthumb 5.09278 57.7934
rfemur -14.1059 -3.60839 13.8176
rtibia 50.8653
rfoot -24.0549 9.92137
rtoes -17.4057
lfemur -3.47206 -8.43054 -24.8891
ltibia 21.6794
lfoot -11.3846 2.14666
ltoes -16.0951
